<?xml version="1.0" encoding="UTF-8"?>
<svg version="1.1" xmlns="http://www.w3.org/2000/svg" width="96" height="96">
<path d="M0 0 C0.17052161 10.35088753 -0.30182959 20.48461827 -1.27734375 30.796875 C-1.40995884 32.24794121 -1.54207442 33.69905315 -1.67372131 35.15020752 C-1.94778632 38.15555739 -2.22633434 41.16044336 -2.50854492 44.16503906 C-2.86992863 48.01431527 -3.22194179 51.86437919 -3.57096004 55.71479416 C-3.8417578 58.69527641 -4.11626624 61.67540718 -4.39203072 64.65543365 C-4.52328388 66.07632567 -4.65364706 67.49730019 -4.78309441 68.91835785 C-4.96368158 70.8921948 -5.14956142 72.86554538 -5.33569336 74.83886719 C-5.49224648 76.51973419 -5.49224648 76.51973419 -5.65196228 78.23455811 C-6 81 -6 81 -7 84 C-13.30225946 84.48478919 -17.89352337 82.80101028 -23.6875 80.4375 C-25.35399063 79.75941071 -27.02446536 79.09101082 -28.69921875 78.43359375 C-29.42971436 78.13509521 -30.16020996 77.83659668 -30.9128418 77.52905273 C-33.45354885 76.88503447 -34.58485706 76.98210331 -37 78 C-39.15955389 79.77879654 -39.15955389 79.77879654 -41.2578125 82.03515625 C-42.04800781 82.84404297 -42.83820312 83.65292969 -43.65234375 84.48632812 C-44.46832031 85.33646484 -45.28429688 86.18660156 -46.125 87.0625 C-47.74807509 88.74526564 -49.37545737 90.42389113 -51.0078125 92.09765625 C-51.72598145 92.84539307 -52.44415039 93.59312988 -53.18408203 94.36352539 C-55 96 -55 96 -57 96 C-58.00143882 92.06843948 -58.99822344 88.13573137 -59.99072266 84.2019043 C-60.32896471 82.86401591 -60.66847359 81.52644712 -61.00927734 80.18920898 C-61.49910619 78.26630945 -61.98399397 76.34215339 -62.46875 74.41796875 C-62.76201172 73.26063232 -63.05527344 72.1032959 -63.35742188 70.91088867 C-64 68 -64 68 -64 65 C-65.23621094 64.60167969 -66.47242188 64.20335938 -67.74609375 63.79296875 C-73.60067276 61.84144241 -79.32530943 59.58203848 -85.0625 57.3125 C-86.11888672 56.89677734 -87.17527344 56.48105469 -88.26367188 56.05273438 C-90.84327547 55.03723432 -93.42202161 54.01961715 -96 53 C-96 51.02 -96 49.04 -96 47 C-95.09983154 46.5373877 -94.19966309 46.07477539 -93.2722168 45.59814453 C-72.01955653 34.689844 -72.01955653 34.689844 -50.85375977 23.61450195 C-43.21746678 19.57639935 -35.54951933 15.59939371 -27.87573242 11.63305664 C-23.46292423 9.3471595 -19.05785635 7.06176327 -14.73046875 4.6171875 C-13.60253906 3.98039063 -12.47460938 3.34359375 -11.3125 2.6875 C-10.40113281 2.15511719 -9.48976563 1.62273437 -8.55078125 1.07421875 C-5.53842072 -0.19438637 -3.23860903 -0.07654641 0 0 Z " fill="#579ED7" transform="translate(96,0)"/>
<path d="M0 0 C0.33 0 0.66 0 1 0 C1.17052161 10.35088753 0.69817041 20.48461827 -0.27734375 30.796875 C-0.40995884 32.24794121 -0.54207442 33.69905315 -0.67372131 35.15020752 C-0.94778632 38.15555739 -1.22633434 41.16044336 -1.50854492 44.16503906 C-1.86992863 48.01431527 -2.22194179 51.86437919 -2.57096004 55.71479416 C-2.8417578 58.69527641 -3.11626624 61.67540718 -3.39203072 64.65543365 C-3.52328388 66.07632567 -3.65364706 67.49730019 -3.78309441 68.91835785 C-3.96368158 70.8921948 -4.14956142 72.86554538 -4.33569336 74.83886719 C-4.4400621 75.95944519 -4.54443085 77.08002319 -4.65196228 78.23455811 C-5 81 -5 81 -6 84 C-12.44857768 84.51905332 -17.25184993 82.71091519 -23.1875 80.3125 C-24.57328247 79.76819336 -24.57328247 79.76819336 -25.98706055 79.21289062 C-28.66413827 78.15641485 -31.33349402 77.08284769 -34 76 C-34.70672852 75.71302246 -35.41345703 75.42604492 -36.14160156 75.13037109 C-39.44065259 73.78307465 -42.72381825 72.40178103 -46 71 C-42.48713202 64.40067003 -38.56803401 58.18527551 -34.375 52 C-33.12405394 50.13995883 -31.87406532 48.27927341 -30.625 46.41796875 C-30.01011719 45.50192871 -29.39523438 44.58588867 -28.76171875 43.64208984 C-26.2602483 39.89057748 -23.81239255 36.1058466 -21.375 32.3125 C-16.96247793 25.44592859 -12.45216466 18.64891974 -7.88232422 11.88598633 C-7.40424316 11.17466553 -6.92616211 10.46334473 -6.43359375 9.73046875 C-6.01134521 9.10551514 -5.58909668 8.48056152 -5.15405273 7.83666992 C-3.96503067 5.94434646 -2.96641886 4.01381321 -2 2 C-1.34 2 -0.68 2 0 2 C0 1.34 0 0.68 0 0 Z " fill="#63B4F5" transform="translate(95,0)"/>
<path d="M0 0 C0 4.36281234 -2.46130853 7.11390833 -4.8125 10.625 C-5.84003534 12.18476963 -6.86737424 13.74466869 -7.89453125 15.3046875 C-8.41869629 16.09584961 -8.94286133 16.88701172 -9.48291016 17.70214844 C-11.25690678 20.3891224 -13.00345192 23.09285683 -14.74560547 25.80053711 C-23.40576993 39.25935635 -32.22072539 52.61874134 -41 66 C-40.37351562 66.26554687 -39.74703125 66.53109375 -39.1015625 66.8046875 C-38.28429687 67.15789062 -37.46703125 67.51109375 -36.625 67.875 C-35.81289063 68.22304687 -35.00078125 68.57109375 -34.1640625 68.9296875 C-32 70 -32 70 -30 72 C-32.80530847 74.8546576 -35.61707696 77.70277231 -38.43505859 80.54492188 C-39.39324956 81.51318538 -40.34963982 82.48323426 -41.30419922 83.45507812 C-42.6746382 84.8497097 -44.05206367 86.23746521 -45.4296875 87.625 C-46.25710449 88.46289062 -47.08452148 89.30078125 -47.93701172 90.1640625 C-50 92 -50 92 -52 92 C-53.00143882 88.06843948 -53.99822344 84.13573137 -54.99072266 80.2019043 C-55.32896471 78.86401591 -55.66847359 77.52644712 -56.00927734 76.18920898 C-56.49910619 74.26630945 -56.98399397 72.34215339 -57.46875 70.41796875 C-57.76201172 69.26063232 -58.05527344 68.1032959 -58.35742188 66.91088867 C-59 64 -59 64 -59 61 C-59.66 60.67 -60.32 60.34 -61 60 C-60.56606934 59.63712387 -60.13213867 59.27424774 -59.68505859 58.90037537 C-52.99255928 53.18317108 -46.82896589 46.95584978 -40.625 40.72265625 C-39.44838076 39.54416817 -38.27153775 38.36590347 -37.09448242 37.18785095 C-34.02139193 34.11097192 -30.95131845 31.0311001 -27.88189697 27.95056152 C-24.73951326 24.79788427 -21.59423929 21.64809331 -18.44921875 18.49804688 C-12.29667193 12.33482746 -6.14731438 6.16843835 0 0 Z " fill="#1D83D4" transform="translate(91,4)"/>
<path d="M0 0 C0 2 0 4 0 6 C4.95 7.98 4.95 7.98 10 10 C5.77883845 15.03043332 1.39019121 19.79239333 -3.25 24.4375 C-4.18585937 25.39172852 -4.18585937 25.39172852 -5.140625 26.36523438 C-6.0378125 27.26532227 -6.0378125 27.26532227 -6.953125 28.18359375 C-7.49098633 28.72556396 -8.02884766 29.26753418 -8.58300781 29.82592773 C-10 31 -10 31 -12 31 C-12.53414112 29.10787298 -13.05178329 27.21108364 -13.5625 25.3125 C-13.99755859 23.72888672 -13.99755859 23.72888672 -14.44140625 22.11328125 C-15.05055862 18.71821524 -15.28594864 17.19538754 -14 14 C-11.82997274 11.36548024 -9.41080002 9.03507998 -6.9375 6.6875 C-6.27427734 6.04232422 -5.61105469 5.39714844 -4.92773438 4.73242188 C-3.29382329 3.14552982 -1.65131853 1.56873672 0 0 Z " fill="#2195F2" transform="translate(51,65)"/>
<path d="M0 0 C0 4.04863987 -1.29319268 5.01557142 -4 8 C-4.97912354 8.82129395 -5.95824707 9.64258789 -6.96704102 10.48876953 C-12.25444678 14.97949458 -17.07660418 19.95299196 -21.96484375 24.8671875 C-23.00837079 25.91258325 -24.05212152 26.95775575 -25.09608459 28.00271606 C-27.82230745 30.7327284 -30.54551181 33.46573193 -33.26806641 36.19940186 C-36.05512459 38.99675154 -38.84507146 41.79121701 -41.63476562 44.5859375 C-47.09265081 50.05449694 -52.54734559 55.52622445 -58 61 C-58.99 60.67 -59.98 60.34 -61 60 C-60.56606934 59.63712387 -60.13213867 59.27424774 -59.68505859 58.90037537 C-52.99255928 53.18317108 -46.82896589 46.95584978 -40.625 40.72265625 C-39.44838076 39.54416817 -38.27153775 38.36590347 -37.09448242 37.18785095 C-34.02139193 34.11097192 -30.95131845 31.0311001 -27.88189697 27.95056152 C-24.73951326 24.79788427 -21.59423929 21.64809331 -18.44921875 18.49804688 C-12.29667193 12.33482746 -6.14731438 6.16843835 0 0 Z " fill="#268CDB" transform="translate(91,4)"/>
</svg>
